<svg width="512" height="512" viewBox="0 0 512 512" fill="none" xmlns="http://www.w3.org/2000/svg">
<g clip-path="url(#clip0_9_3)">
<path d="M263.794 72.5L449.124 393.5C452.588 399.5 448.258 407 441.329 407H70.6706C63.7424 407 59.4122 399.5 62.8763 393.5L248.206 72.5C251.67 66.5 260.33 66.5 263.794 72.5Z" fill="white" stroke="#FF0000" stroke-width="24"/>
<path d="M230.254 349.467C230.254 342.436 232.793 336.283 237.871 331.01C242.949 325.639 249.102 322.953 256.328 322.953C263.359 322.953 269.463 325.59 274.639 330.863C279.814 336.039 282.402 342.24 282.402 349.467C282.402 356.693 279.766 362.895 274.492 368.07C269.316 373.246 263.262 375.834 256.328 375.834C249.102 375.834 242.949 373.295 237.871 368.217C232.793 363.041 230.254 356.791 230.254 349.467ZM232.891 283.402V177.201C232.891 169.779 234.99 163.48 239.189 158.305C243.389 153.129 249.102 150.541 256.328 150.541C263.75 150.541 269.512 153.031 273.613 158.012C277.715 162.992 279.766 169.389 279.766 177.201V283.402C279.766 290.824 277.666 297.123 273.467 302.299C269.268 307.475 263.555 310.062 256.328 310.062C248.906 310.062 243.145 307.572 239.043 302.592C234.941 297.611 232.891 291.215 232.891 283.402Z" fill="black"/>
</g>
<defs>
<clipPath id="clip0_9_3">
<rect width="512" height="512" fill="white"/>
</clipPath>
</defs>
</svg>
